<svg>
    <symbol id="plus" viewBox="0 0 16 16" fill="none" xmlns="http://www.w3.org/2000/svg">
        <path d="M1 8H15M8 15V1" stroke="white" stroke-width="1.5" stroke-linecap="round" stroke-linejoin="round"/>
    </symbol>
    <symbol id="warning-protection" viewBox="0 0 48 48" fill="none" xmlns="http://www.w3.org/2000/svg">
        <rect width="48" height="48" rx="24" fill="#F4FAFA"/>
        <path d="M21.5744 23.8725L23.1657 25.4825L27.4157 21.1825M22.9977 14.2325L18.0657 16.1125C16.9291 16.5425 16 17.9025 16 19.1225V26.5525C16 27.7325 16.7709 29.2825 17.7099 29.9925L21.9599 33.2025C23.3535 34.2625 25.6465 34.2625 27.0401 33.2025L31.2901 29.9925C32.2291 29.2825 33 27.7325 33 26.5525V19.1225C33 17.8925 32.0709 16.5325 30.9343 16.1025L26.0023 14.2325C25.1622 13.9225 23.818 13.9225 22.9977 14.2325Z" stroke="#212121" stroke-width="1.5" stroke-linecap="round" stroke-linejoin="round"/>
    </symbol>
    <symbol id="question" viewBox="0 0 16 16" fill="none" xmlns="http://www.w3.org/2000/svg">
        <path d="M8 8.91871V8.73588C8 8.14371 8.37955 7.8302 8.75907 7.57766C9.12956 7.33383 9.5 7.02034 9.5 6.4456C9.5 5.64444 8.83134 5 8 5C7.16866 5 6.5 5.64444 6.5 6.4456M7.99588 11H8.00401M14 8C14 11.3137 11.3137 14 8 14C4.68629 14 2 11.3137 2 8C2 4.68629 4.68629 2 8 2C11.3137 2 14 4.68629 14 8Z" stroke="#8A9393" stroke-linecap="round" stroke-linejoin="round"/>
    </symbol>
    <symbol id="check-mark" viewBox="0 0 20 24" fill="none" xmlns="http://www.w3.org/2000/svg">
        <path d="M3 12.5L7.42105 17L17 8" stroke="#212121" stroke-width="1.5" stroke-linecap="round" stroke-linejoin="round"/>
    </symbol>
    <symbol id="arrow-up" viewBox="0 0 36 36" fill="none" xmlns="http://www.w3.org/2000/svg">
        <path d="M29 23L17.9999 13L7 23" stroke-width="1.5" stroke-linecap="round" stroke-linejoin="round"/>
    </symbol>
    <symbol id="data-picker-arrow" viewBox="0 0 10 9" fill="none" xmlns="http://www.w3.org/2000/svg">
        <path d="M1 2.69995L5.00003 6.29995L9 2.69995" stroke="#212121" stroke-width="1.5" stroke-linecap="round" stroke-linejoin="round"/>
    </symbol>
    <symbol id="booking-graphic" viewBox="0 0 48 48" fill="none" xmlns="http://www.w3.org/2000/svg">
        <rect width="48" height="48" rx="10" fill="#CBE7E7"/>
        <path d="M14 14H34M20 34L24 32M24 32V29M24 32L28 34M19.5 23L22.65 20.37C22.9 20.16 23.23 20.22 23.4 20.5L24.6 22.5C24.77 22.78 25.1 22.83 25.35 22.63L28.5 20M17.9 29H30.09C31.99 29 32.99 28 32.99 26.1V14H14.99V26.1C15 28 16 29 17.9 29Z" stroke="#212121" stroke-width="1.5" stroke-miterlimit="10" stroke-linecap="round" stroke-linejoin="round"/>
    </symbol>
    <symbol id="booking-rise" viewBox="0 0 48 48" fill="none" xmlns="http://www.w3.org/2000/svg">
        <rect width="48" height="48" rx="10" fill="#CBE7E7"/>
        <path d="M14 34H34M21.75 16V34H26.25V16C26.25 14.9 25.8 14 24.45 14H23.55C22.2 14 21.75 14.9 21.75 16ZM15 22V34H19V22C19 20.9 18.6 20 17.4 20H16.6C15.4 20 15 20.9 15 22ZM29 27V34H33V27C33 25.9 32.6 25 31.4 25H30.6C29.4 25 29 25.9 29 27Z" stroke="#212121" stroke-width="1.5" stroke-linecap="round" stroke-linejoin="round"/>
    </symbol>
    <symbol id="booking-edit" viewBox="0 0 48 48" fill="none" xmlns="http://www.w3.org/2000/svg">
        <rect width="48" height="48" rx="10" fill="#CBE7E7"/>
        <path d="M22.8883 14.2481H20.9132C15.9752 14.2481 14 16.2233 14 21.1613V27.0868C14 32.0248 15.9752 34 20.9132 34H26.8387C31.7767 34 33.7519 32.0248 33.7519 27.0868V25.1116M26.7498 16.3714C27.4115 18.7318 29.2583 20.5786 31.6286 21.2502M27.8658 15.2555L20.0836 23.0377C19.7873 23.334 19.491 23.9167 19.4318 24.3413L19.0071 27.314C18.8491 28.3905 19.6095 29.141 20.686 28.9929L23.6587 28.5682C24.0735 28.509 24.6561 28.2127 24.9623 27.9164L32.7445 20.1342C34.0877 18.791 34.7197 17.2306 32.7445 15.2555C30.7694 13.2803 29.209 13.9123 27.8658 15.2555Z" stroke="#212121" stroke-width="1.5" stroke-miterlimit="10" stroke-linecap="round" stroke-linejoin="round"/>
    </symbol>
    <symbol id="booking-blocked" viewBox="0 0 48 48" fill="none" xmlns="http://www.w3.org/2000/svg">
        <rect width="48" height="48" rx="10" fill="#CBE7E7"/>
        <path d="M31.6418 25.8493C30.7303 30.3886 26.379 33.6828 21.4299 32.8789C17.7157 32.2808 14.7266 29.2905 14.119 25.5748C13.3252 20.6432 16.5984 16.2902 21.1163 15.3686M29.9953 23.2021C32.5434 23.2021 33.6018 22.2217 32.661 19.0059C32.024 16.8392 30.1619 14.9764 27.9961 14.3391C24.7816 13.3979 23.8016 14.4568 23.8016 17.0059V19.8295C23.8016 22.2217 24.7816 23.2021 26.7417 23.2021H29.9953Z" stroke="#212121" stroke-width="1.5" stroke-linecap="round" stroke-linejoin="round"/>
    </symbol>
    <symbol id="check-mark-approved" viewBox="0 0 14 14" fill="none" xmlns="http://www.w3.org/2000/svg">
        <path d="M4.45024 7.00003L6.14824 8.69803L9.55024 5.30203M7.00024 13C10.3002 13 13.0002 10.3 13.0002 7C13.0002 3.7 10.3002 1 7.00024 1C3.70024 1 1.00024 3.7 1.00024 7C1.00024 10.3 3.70024 13 7.00024 13Z" stroke="#0EB500" stroke-linecap="round" stroke-linejoin="round"/>
    </symbol>
    <symbol id="arrow-down-approved" viewBox="0 0 10 10" fill="none" xmlns="http://www.w3.org/2000/svg">
        <path d="M1 3L5.00003 7L9 3" stroke="#0EAC00" stroke-width="1.5" stroke-linecap="round" stroke-linejoin="round"/>
    </symbol>
    <symbol id="booking-list-edit" viewBox="0 0 24 24" fill="none" xmlns="http://www.w3.org/2000/svg">
        <path d="M11.89 4.91259C12.32 7.69497 14.56 9.82208 17.34 10.1044M3 22H21M13.26 3.45075L5.04997 12.2112C4.73997 12.5439 4.43997 13.1992 4.37997 13.6528L4.00997 16.9191C3.87997 18.0986 4.71997 18.9051 5.87997 18.7035L9.09997 18.149C9.54997 18.0683 10.18 17.7357 10.49 17.3929L18.7 8.63244C20.12 7.12027 20.76 5.39641 18.55 3.28946C16.35 1.20267 14.68 1.93859 13.26 3.45075Z" stroke="inherit" stroke-width="1.5" stroke-miterlimit="10" stroke-linecap="round" stroke-linejoin="round"/>
    </symbol>
    <symbol id="booking-copy" viewBox="0 0 24 24" fill="none" xmlns="http://www.w3.org/2000/svg">
        <path d="M15.6 12.648V17.499C15.6 19.605 14.196 21 12.099 21H6.50099C4.40399 21 3 19.605 3 17.499V10.506C3 8.40005 4.40399 7.00505 6.50099 7.00505H9.94798M15.6 12.648C15.6 11.721 15.231 10.83 14.574 10.173L12.423 8.03105C11.766 7.37405 10.875 7.00505 9.94798 7.00505M15.6 12.648V17.0039H17.4989C19.5959 17.0039 20.9999 15.6 20.9999 13.503V8.65198C20.9999 7.72498 20.6309 6.83399 19.9739 6.17699L17.8229 4.026C17.1659 3.369 16.275 3 15.348 3H11.901C9.80398 3 8.39998 4.404 8.39998 6.50099V7.00499L9.94798 7.00505" stroke="inherit" stroke-width="1.5" stroke-linecap="round" stroke-linejoin="round"/>
    </symbol>
    <symbol id="booking-arrow-down" viewBox="0 0 24 24" fill="none" xmlns="http://www.w3.org/2000/svg">
        <path d="M3 8L11.5001 16L20 8" stroke="inherit" stroke-width="1.5" stroke-linecap="round" stroke-linejoin="round"/>
    </symbol>
    <symbol id="cross-canceled" viewBox="0 0 14 14" fill="none" xmlns="http://www.w3.org/2000/svg">
        <path d="M5.30223 8.69803L8.69823 5.30203M8.69823 8.69803L5.30223 5.30203M7.00024 13C10.3002 13 13.0002 10.3 13.0002 7C13.0002 3.7 10.3002 1 7.00024 1C3.70024 1 1.00024 3.7 1.00024 7C1.00024 10.3 3.70024 13 7.00024 13Z" stroke="#FE0606" stroke-linecap="round" stroke-linejoin="round"/>
    </symbol>
    <symbol id="arrow-down-canceled" viewBox="0 0 10 10" fill="none" xmlns="http://www.w3.org/2000/svg">
        <path d="M1 3L5.00003 7L9 3" stroke="#FE0606" stroke-width="1.5" stroke-linecap="round" stroke-linejoin="round"/>
    </symbol>
    <symbol id="checkbox-arrow-down" viewBox="0 0 10 10" fill="none" xmlns="http://www.w3.org/2000/svg">
        <path d="M1 3L5.00003 7L9 3" stroke="#212121" stroke-width="1.5" stroke-linecap="round" stroke-linejoin="round"/>
    </symbol>
    <symbol id="delete-basket" viewBox="0 0 24 24" fill="none" xmlns="http://www.w3.org/2000/svg">
        <path d="M21 5.97998C17.67 5.64998 14.32 5.47998 10.98 5.47998C9 5.47998 7.02 5.57998 5.04 5.77998L3 5.97998M8.5 4.97L8.72 3.66C8.88 2.71 9 2 10.69 2H13.31C15 2 15.13 2.75 15.28 3.67L15.5 4.97M18.85 9.14001L18.2 19.21C18.09 20.78 18 22 15.21 22H8.79002C6.00002 22 5.91002 20.78 5.80002 19.21L5.15002 9.14001M10.33 16.5H13.66M9.5 12.5H14.5" stroke-width="1.5" stroke-linecap="round" stroke-linejoin="round"/>
    </symbol>
    <symbol id="pagination-arrow" viewBox="0 0 32 32" fill="none" xmlns="http://www.w3.org/2000/svg">
        <path d="M20 8L12 16.0001L20 24" stroke="#212121" stroke-width="1.5" stroke-linecap="round" stroke-linejoin="round"/>
    </symbol>
</svg>
